<!-- icon666.com - MILLIONS OF FREE VECTOR ICONS --><svg id="Layer_1" viewBox="0 0 512 512" xmlns="http://www.w3.org/2000/svg" data-name="Layer 1"><path d="m501.074 228.37c-43.5-46.143-87.155-81.022-129.744-103.669-43.536-23.152-87.219-34.23-129.82-32.927-40.444 1.238-80.686 13.65-119.61 36.893-38.113 22.759-75.99 56.557-112.575 100.453a39.792 39.792 0 0 0 .726 52.092c40.367 45.77 81.431 80.67 122.052 103.726 41.377 23.487 83.455 35.392 125.085 35.392h.443c41.479-.084 83.3-11.994 124.292-35.4 40.109-22.9 80.535-57.475 120.151-102.764a39.849 39.849 0 0 0 -1-53.796zm-23.08 32.723c-73.724 84.282-147.886 127.09-220.428 127.237h-.376c-72.988 0-148.069-43.164-223.143-128.288a7.871 7.871 0 0 1 -.143-10.431c67.8-81.349 137.979-123.692 208.583-125.852q2.863-.087 5.733-.087c73.108 0 150.311 42.582 229.574 126.652a7.976 7.976 0 0 1 .2 10.769zm-221.994-96.893a91.8 91.8 0 1 0 91.8 91.8 91.9 91.9 0 0 0 -91.8-91.8zm0 151.6a59.8 59.8 0 1 1 59.8-59.8 59.867 59.867 0 0 1 -59.8 59.8z" fill="#000000" style="fill: rgb(16, 41, 56);"></path></svg>